<svg version="1.1" viewBox="0.0 0.0 960.0 480.0" fill="none" stroke="none" stroke-linecap="square" stroke-miterlimit="10" xmlns:xlink="http://www.w3.org/1999/xlink" xmlns="http://www.w3.org/2000/svg"><clipPath id="p.0"><path d="m0 0l960.0 0l0 480.0l-960.0 0l0 -480.0z" clip-rule="nonzero"/></clipPath><g clip-path="url(#p.0)"><path fill="#000000" fill-opacity="0.0" d="m0 0l960.0 0l0 480.0l-960.0 0z" fill-rule="evenodd"/><path fill="#d9d9d9" d="m22.099783 240.00006l0 0c0 -102.86412 81.85081 -186.25197 182.81891 -186.25197l0 0c48.486588 0 94.98729 19.622921 129.27248 54.551937c34.285187 34.929016 53.546417 82.30293 53.546417 131.70003l0 0c0 102.864136 -81.8508 186.25198 -182.8189 186.25198l0 0c-100.968094 0 -182.81891 -83.38785 -182.81891 -186.25198z" fill-rule="evenodd"/><path fill="#d9d9d9" d="m572.2623 240.00006l0 0c0 -102.86412 81.85077 -186.25197 182.81891 -186.25197l0 0c48.486572 0 94.98724 19.622921 129.27246 54.551937c34.285217 34.929016 53.546387 82.30293 53.546387 131.70003l0 0c0 102.864136 -81.85077 186.25198 -182.81885 186.25198l0 0c-100.96814 0 -182.81891 -83.38785 -182.81891 -186.25198z" fill-rule="evenodd"/><path fill="#d9d9d9" d="m188.47165 54.206806l579.5591 0l0 321.25983l-579.5591 0z" fill-rule="evenodd"/><path fill="#999999" d="m613.0894 240.00267l0 0c0 -79.89429 63.568542 -144.6614 141.98425 -144.6614l0 0c37.656555 0 73.77081 15.241066 100.39807 42.370346c26.627197 27.129272 41.58618 63.92447 41.58618 102.29106l0 0c0 79.8943 -63.56848 144.66142 -141.98425 144.66142l0 0c-78.41571 0 -141.98425 -64.76712 -141.98425 -144.66142z" fill-rule="evenodd"/><path fill="#434343" d="m124.318016 214.20378l54.817482 0l0 -54.817474l51.603256 0l0 54.817474l54.81749 0l0 51.603256l-54.81749 0l0 54.817474l-51.603256 0l0 -54.817474l-54.817482 0z" fill-rule="evenodd"/><path fill="#000000" d="m368.54178 101.652985l0 58.509323l14.627228 0l0 14.627335l14.627228 0l0 14.627319l14.627228 0l0 14.627335l14.627228 0l0 -14.627335l14.627228 0l0 -14.627319l14.627258 0l0 -14.627335l14.627228 0l0 -58.509323l-29.254486 0l0 43.88199l-14.627228 0l0 14.627335l-14.627228 0l0 -14.627335l-14.627228 0l0 -43.88199z" fill-rule="evenodd"/><path fill="#000000" d="m514.814 101.652985l0 14.627327l-14.627228 0l0 14.627327l-14.627228 0l0 43.882004l14.627228 0l0 14.627319l14.627228 0l0 14.627335l73.13617 0l0 -58.509323l-43.881714 0l0 14.627335l14.627258 0l0 29.254654l-29.254456 0l0 -14.627319l-14.627258 0l0 -43.882004l14.627258 0l0 -14.627327l58.50891 0l0 -14.627327z" fill-rule="evenodd"/><path stroke="#000000" stroke-width="1.0" stroke-linejoin="round" stroke-linecap="butt" d="m368.54178 101.652985l0 58.509323l14.627228 0l0 14.627335l14.627228 0l0 14.627319l14.627228 0l0 14.627335l14.627228 0l0 -14.627335l14.627228 0l0 -14.627319l14.627258 0l0 -14.627335l14.627228 0l0 -58.509323l-29.254486 0l0 43.88199l-14.627228 0l0 14.627335l-14.627228 0l0 -14.627335l-14.627228 0l0 -43.88199z" fill-rule="evenodd"/><path stroke="#000000" stroke-width="1.0" stroke-linejoin="round" stroke-linecap="butt" d="m514.814 101.652985l0 14.627327l-14.627228 0l0 14.627327l-14.627228 0l0 43.882004l14.627228 0l0 14.627319l14.627228 0l0 14.627335l73.13617 0l0 -58.509323l-43.881714 0l0 14.627335l14.627258 0l0 29.254654l-29.254456 0l0 -14.627319l-14.627258 0l0 -43.882004l14.627258 0l0 -14.627327l58.50891 0l0 -14.627327z" fill-rule="evenodd"/><path fill="#000000" d="m427.05157 240.26724l0 14.627319l14.627258 0l0 43.88199l-14.627258 0l0 14.62735l-29.254456 0l0 -73.13666zm-58.50891 -14.627335l0 102.39131l73.13617 0l0 -14.627319l14.627228 0l0 -14.62735l14.627228 0l0 -43.88199l-14.627228 0l0 -14.627319l-14.627228 0l0 -14.627335z" fill-rule="evenodd"/><path fill="#000000" d="m514.81494 225.63991l0 14.627335l-14.627258 0l0 14.627319l-14.627228 0l0 43.88199l14.627228 0l0 14.62735l14.627258 0l0 14.627319l58.50891 0l0 -14.627319l14.627197 0l0 -14.62735l-29.254456 0l0 14.62735l-29.254456 0l0 -14.62735l-14.627197 0l0 -43.88199l14.627197 0l0 -14.627319l29.254456 0l0 14.627319l29.254456 0l0 -14.627319l-14.627197 0l0 -14.627335z" fill-rule="evenodd"/><path stroke="#000000" stroke-width="1.0" stroke-linejoin="round" stroke-linecap="butt" d="m427.05157 240.26724l0 14.627319l14.627258 0l0 43.88199l-14.627258 0l0 14.62735l-29.254456 0l0 -73.13666zm-58.50891 -14.627335l0 102.39131l73.13617 0l0 -14.627319l14.627228 0l0 -14.62735l14.627228 0l0 -43.88199l-14.627228 0l0 -14.627319l-14.627228 0l0 -14.627335z" fill-rule="evenodd"/><path stroke="#000000" stroke-width="1.0" stroke-linejoin="round" stroke-linecap="butt" d="m514.81494 225.63991l0 14.627335l-14.627258 0l0 14.627319l-14.627228 0l0 43.88199l14.627228 0l0 14.62735l14.627258 0l0 14.627319l58.50891 0l0 -14.627319l14.627197 0l0 -14.62735l-29.254456 0l0 14.62735l-29.254456 0l0 -14.62735l-14.627197 0l0 -43.88199l14.627197 0l0 -14.627319l29.254456 0l0 14.627319l29.254456 0l0 -14.627319l-14.627197 0l0 -14.627335z" fill-rule="evenodd"/><path fill="#d9d9d9" d="m725.5376 349.0267l0 0c-15.907166 -15.907196 -15.907166 -41.697876 0 -57.605072l82.25116 -82.25113l0 0c7.638916 -7.6389008 17.999512 -11.930405 28.802551 -11.930405c10.80304 0 21.163635 4.291504 28.80249 11.930405l0 0l0 0c15.907227 15.907196 15.907227 41.69786 0 57.605072l-82.2511 82.25113c-15.907227 15.907196 -41.697876 15.907196 -57.605103 0z" fill-rule="evenodd"/><path fill="#434343" d="m801.15326 239.7849l0 0c0 -18.687729 15.149353 -33.837128 33.837097 -33.837128l0 0c8.974182 0 17.58075 3.564972 23.926453 9.91066c6.345703 6.345688 9.910706 14.952301 9.910706 23.926468l0 0c0 18.687729 -15.149414 33.837112 -33.83716 33.837112l0 0c-18.687744 0 -33.837097 -15.149384 -33.837097 -33.837112z" fill-rule="evenodd"/><path fill="#434343" d="m722.9202 318.2464l0 0c0 -18.687714 15.149414 -33.837097 33.83716 -33.837097l0 0c8.974121 0 17.58075 3.564972 23.926453 9.910645c6.345703 6.345703 9.910645 14.952301 9.910645 23.926453l0 0c0 18.687744 -15.149353 33.837128 -33.837097 33.837128l0 0c-18.687744 0 -33.83716 -15.149384 -33.83716 -33.837128z" fill-rule="evenodd"/><path fill="#d9d9d9" d="m647.16736 270.8966l0 0c-15.907227 -15.907196 -15.907227 -41.69786 0 -57.605072l82.25116 -82.25113l0 0c7.638855 -7.6389084 17.99945 -11.930397 28.80249 -11.930397c10.80304 0 21.163635 4.2914886 28.802551 11.930397l0 0l0 0c15.907227 15.907196 15.907227 41.69786 0 57.605072l-82.25116 82.25113c-15.907166 15.907196 -41.697815 15.907196 -57.60504 0z" fill-rule="evenodd"/><path fill="#434343" d="m722.78296 161.65479l0 0c0 -18.687714 15.149414 -33.837112 33.83716 -33.837112l0 0c8.974121 0 17.58075 3.564972 23.926453 9.91066c6.345703 6.345688 9.910645 14.952301 9.910645 23.926453l0 0c0 18.687729 -15.149414 33.837128 -33.837097 33.837128l0 0c-18.687744 0 -33.83716 -15.149399 -33.83716 -33.837128z" fill-rule="evenodd"/><path fill="#434343" d="m644.55 240.11632l0 0c0 -18.687729 15.149414 -33.837128 33.837097 -33.837128l0 0c8.974182 0 17.58081 3.564972 23.926453 9.91066c6.345703 6.345688 9.910706 14.952301 9.910706 23.926468l0 0c0 18.687729 -15.149414 33.837112 -33.83716 33.837112l0 0c-18.687683 0 -33.837097 -15.149384 -33.837097 -33.837112z" fill-rule="evenodd"/><path fill="#999999" d="m78.362206 239.99213l0 0c0 -69.89229 56.658897 -126.55118 126.551186 -126.55118l0 0c33.56346 0 65.75223 13.333031 89.4852 37.06598c23.73294 23.732956 37.06598 55.921738 37.06598 89.4852l0 0c0 69.89227 -56.658905 126.55118 -126.55118 126.55118l0 0c-69.89229 0 -126.551186 -56.658905 -126.551186 -126.55118zm8.929451 0l0 0c0 64.96069 52.66104 117.621735 117.621735 117.621735c64.96069 0 117.621735 -52.66104 117.621735 -117.621735l0 0c0 -64.96069 -52.66104 -117.62173 -117.621735 -117.62173l0 0c-64.96069 0 -117.621735 52.661034 -117.621735 117.62173z" fill-rule="evenodd"/></g></svg>